<?xml version="1.0" encoding="utf-8"?>
<!-- Generator: Adobe Illustrator 23.0.3, SVG Export Plug-In . SVG Version: 6.00 Build 0)  -->
<svg version="1.1" id="Layer_1" xmlns="http://www.w3.org/2000/svg" xmlns:xlink="http://www.w3.org/1999/xlink" x="0px" y="0px"
	 viewBox="0 0 24 24" style="enable-background:new 0 0 24 24;" xml:space="preserve">
<style type="text/css">
	.st0{fill:#83A61E;}
	.st1{fill:#646464;}
</style>
<g id="unlink">
	<path d="M2.4,11.9c0-2.1,1.6-3.7,3.7-3.7h4.7V6H6.1c-3.3,0-5.9,2.6-5.9,5.9s2.6,5.9,5.9,5.9h4.7v-2.3H6.1C4,15.6,2.4,14,2.4,11.9z
		 M17.9,6h-4.8v2.3h4.8c2.1,0,3.7,1.6,3.7,3.7s-1.6,3.7-3.7,3.7h-4.8V18h4.8c3.3,0,5.9-2.6,5.9-5.9S21.2,6,17.9,6z"/>
</g>
<g id="link">
	<path d="M2.4,11.9c0-2.1,1.6-3.7,3.7-3.7h4.7V6H6.1c-3.3,0-5.9,2.6-5.9,5.9s2.6,5.9,5.9,5.9h4.7v-2.3H6.1C4,15.6,2.4,14,2.4,11.9z
		 M7.3,13.1h9.5v-2.4H7.3V13.1z M17.9,6h-4.8v2.3h4.8c2.1,0,3.7,1.6,3.7,3.7s-1.6,3.7-3.7,3.7h-4.8V18h4.8c3.3,0,5.9-2.6,5.9-5.9
		S21.2,6,17.9,6z"/>
</g>
<g id="gear">
	<path d="M23.1,15l-2.5-2c0-0.4,0.1-0.7,0.1-1.1c0-0.4,0-0.7-0.1-1.1l2.5-2c0.2-0.2,0.3-0.5,0.1-0.7l-2.3-4
		c-0.1-0.2-0.4-0.3-0.7-0.2l-2.9,1.1c-0.6-0.4-1.2-0.8-2-1.1l-0.4-3.1c0-0.3-0.3-0.5-0.5-0.5H9.7C9.4,0.4,9.2,0.6,9.1,0.9L8.7,4
		c-0.7,0.2-1.3,0.6-2,1L3.8,3.9c-0.2-0.1-0.5,0-0.7,0.2l-2.3,4C0.7,8.5,0.7,8.8,0.9,9l2.5,2c0,0.4-0.1,0.7-0.1,1.1s0,0.7,0.1,1.1
		l-2.5,2c-0.2,0.2-0.3,0.5-0.1,0.7l2.3,4c0.1,0.2,0.4,0.3,0.7,0.2l2.9-1.1c0.6,0.5,1.2,0.8,2,1.1l0.4,3.1c0,0.3,0.3,0.5,0.6,0.5h4.7
		c0.3,0,0.5-0.2,0.6-0.5l0.4-3.1c0.7-0.3,1.3-0.6,2-1.1l2.9,1.1c0.2,0.1,0.5,0,0.7-0.2l2.3-4C23.4,15.5,23.3,15.2,23.1,15z M12,16.3
		c-2.4,0-4.4-2-4.4-4.4s2-4.3,4.4-4.3s4.4,2,4.4,4.4S14.4,16.3,12,16.3z"/>
</g>
<g id="io-gui-logo-io">
	<ellipse class="st0" cx="4.2" cy="12" rx="4" ry="4"/>
	<path class="st1" d="M17.1,18.7c-3.7,0-6.7-3-6.7-6.7s3-6.7,6.7-6.7s6.7,3,6.7,6.7S20.8,18.7,17.1,18.7z M17.1,8.2
		c-2.2,0-3.9,1.7-3.9,3.8s1.7,3.8,3.9,3.8S21,14.1,21,12S19.3,8.2,17.1,8.2z"/>
</g>
<g id="io-gui-logo">
	<path class="st1" d="M20.8,12.7c0.4-0.4,0.4-1.1,0-1.5L20,10.5l-3-3c-0.4-0.4-0.4-1.1,0-1.5c0.4-0.4,1.1-0.4,1.5,0l4.4,4.4
		c0.8,0.8,0.8,2.1,0,3l-4.4,4.4c-0.4,0.4-1.1,0.4-1.5,0c-0.4-0.4-0.4-1.1,0-1.5"/>
	<path class="st1" d="M3.1,12.7c-0.4-0.4-0.4-1.1,0-1.5l0.7-0.7l3-3c0.4-0.4,0.4-1.1,0-1.5c-0.3-0.4-1-0.4-1.4,0L1,10.5
		c-0.8,0.8-0.8,2.1,0,3l4.4,4.4c0.4,0.4,1.1,0.4,1.5,0c0.4-0.4,0.4-1.1,0-1.5"/>
	<ellipse class="st0" cx="7.9" cy="12" rx="2" ry="2"/>
	<path class="st1" d="M14.2,15.3c-1.8,0-3.3-1.5-3.3-3.3s1.5-3.3,3.3-3.3c1.8,0,3.3,1.5,3.3,3.3S16,15.3,14.2,15.3z M14.2,10.1
		c-1.1,0-1.9,0.8-1.9,1.9s0.8,1.9,1.9,1.9s1.9-0.8,1.9-1.9S15.3,10.1,14.2,10.1z"/>
</g>
<g id="check">
	<path d="M21.3,0H2.7C1.2,0,0,1.2,0,2.7v18.7C0,22.8,1.2,24,2.7,24h18.7c1.4,0,2.7-1.2,2.7-2.7V2.7C24,1.2,22.8,0,21.3,0z M9.4,18.7
		l-6.6-6.6l1.9-1.9l4.8,4.8L19.5,4.9l1.9,1.8L9.4,18.7z"/>
</g>
<g id="uncheck">
	<path d="M21.3,2.7v18.7H2.7V2.7H21.3 M21.3,0H2.7C1.2,0,0,1.2,0,2.7v18.7C0,22.8,1.2,24,2.7,24h18.7c1.4,0,2.7-1.2,2.7-2.7V2.7
		C24,1.2,22.8,0,21.3,0z"/>
</g>
</svg>
